<?xml version="1.0" encoding="utf-8"?>
<!-- Generator: Adobe Illustrator 22.0.1, SVG Export Plug-In . SVG Version: 6.00 Build 0)  -->
<svg version="1.1" id="Layer_1" xmlns="http://www.w3.org/2000/svg" xmlns:xlink="http://www.w3.org/1999/xlink" x="0px" y="0px"
	 viewBox="0 0 579 132.5" style="enable-background:new 0 0 579 132.5;" xml:space="preserve">
<style type="text/css">
	.st0{display:none;}
	.st1{display:inline;fill:#3F7FA9;}
	.st2{display:inline;}
	.st3{fill:#3F7FA9;}
	.st4{fill:#0083CA;}
</style>
<g id="Capa_1" class="st0">
	<polygon class="st1" points="204.4,35.6 204.4,47.8 143.9,47.8 143.9,35.6 135.3,35.6 135.3,67.8 143.9,67.8 143.9,55.3 
		204.4,55.3 204.4,67.8 213,67.8 213,35.6 	"/>
	<path class="st1" d="M295,35.6h-1.9h-59.9h-3h-5.6v32.2h5.6h3h59.9h1.9h6.7V35.6H295z M233.2,60.4V43.1h59.9v17.3
		C293.1,60.4,233.2,60.4,233.2,60.4z"/>
	<polygon class="st1" points="322.5,60.4 322.5,35.6 313.9,35.6 313.9,67.8 319.5,67.8 322.5,67.8 391,67.8 391,60.4 	"/>
	<path class="st1" d="M473.8,35.6h-1.9H412h-3h-5.6v32.2h5.6h3h59.9h1.9h6.7V35.6H473.8z M412,60.4V43.1h59.9v17.3
		C471.9,60.4,412,60.4,412,60.4z"/>
	<polygon class="st1" points="569.5,43.1 569.5,35.6 562.8,35.6 560.9,35.6 501,35.6 498,35.6 492.4,35.6 492.4,54.8 501,54.8 
		501,54.8 560.9,54.8 560.9,60.4 501,60.4 501,60.4 492.4,60.4 492.4,67.8 498,67.8 498,67.8 560.9,67.8 562.8,67.8 569.5,67.8 
		569.5,48.4 560.9,48.4 560.9,48.4 501,48.4 501,43.1 560.9,43.1 560.9,43.1 	"/>
	<path class="st1" d="M135.4,91.2V77.3l0,0h1.4h1.5l0,0v13.9l0,0h-1.4L135.4,91.2L135.4,91.2z M179,91.2L179,91.2h-1.4h-1.4l0,0
		V77.3l0,0h1.5h1.5l0,0l5.6,9.8l0,0l0,0v-9.8l0,0h1.4h1.4l0,0v13.9h-1.4h-1.4l-5.8-10l0,0l0,0V91.2L179,91.2z M225.8,91.2V77.3l0,0
		h1.4l0,0h4.5c1.9,0,3.4,0.6,4.3,1.7c1,1.1,1.5,2.8,1.5,4.9c0,2.4-0.5,4.2-1.5,5.4c-1,1.2-2.5,1.9-4.5,1.9h-4.3l0,0L225.8,91.2
		L225.8,91.2z M228.7,88.8L228.7,88.8h2.4c1.2,0,2.1-0.4,2.7-1.2c0.6-0.8,0.9-2,0.9-3.6c0-1.4-0.3-2.5-0.8-3.3
		c-0.5-0.7-1.4-1.1-2.5-1.1h-2.7l0,0L228.7,88.8L228.7,88.8z M286.3,86c0,2-0.4,3.4-1.3,4.3s-2.3,1.3-4.3,1.3
		c-1.9,0-3.3-0.5-4.2-1.4c-0.9-0.9-1.4-2.3-1.4-4.3v-8.7l0,0h1.4h1.5l0,0V86c0,1,0.2,1.7,0.7,2.2c0.4,0.5,1.1,0.7,2,0.7
		c1,0,1.7-0.2,2.1-0.7s0.6-1.2,0.6-2.3v-8.8l0,0h1.4h1.5l0,0L286.3,86L286.3,86z M332.1,81.5L332.1,81.5c-0.1-0.7-0.3-1.2-0.9-1.6
		c-0.5-0.4-1.2-0.6-2.1-0.6c-0.7,0-1.3,0.2-1.7,0.5c-0.4,0.3-0.6,0.8-0.6,1.4c0,0.4,0.2,0.7,0.7,1c0.4,0.2,1.3,0.5,2.7,0.8
		c2,0.5,3.4,1,4,1.6c0.7,0.6,1,1.5,1,2.8s-0.5,2.3-1.5,3.1c-1,0.8-2.4,1.2-4.2,1.2c-1.8,0-3.1-0.4-4.1-1.2c-1-0.8-1.5-2-1.6-3.5l0,0
		h2.8l0,0c0,0.7,0.3,1.3,0.8,1.7c0.5,0.4,1.2,0.6,2.1,0.6s1.6-0.1,2.2-0.5c0.5-0.3,0.8-0.7,0.8-1.2s-0.2-0.9-0.6-1.2
		c-0.4-0.2-1.1-0.5-2.3-0.8c-2.2-0.5-3.7-1-4.4-1.6c-0.7-0.6-1.1-1.5-1.1-2.7c0-1.4,0.5-2.4,1.5-3.2c1-0.8,2.3-1.2,4-1.2
		c1.6,0,2.8,0.4,3.8,1.2c1,0.8,1.5,1.9,1.6,3.3l0,0L332.1,81.5L332.1,81.5z M375.8,91.2V79.8l0,0h-4.2l0,0v-1.2v-1.2l0,0h11.3l0,0
		v1.2v1.2l0,0h-4.2l0,0v11.5l0,0h-1.4h-1.5V91.2z M420.1,91.2V77.3l0,0h1.4l0,0h5.6c1.3,0,2.4,0.4,3.2,1.1c0.8,0.7,1.2,1.6,1.2,2.8
		c0,1.3-0.5,2.3-1.4,2.9c-0.2,0.2-0.5,0.3-0.8,0.4l0,0c0.2,0.1,0.3,0.1,0.5,0.2c0.8,0.5,1.2,1.3,1.2,2.4l0.1,2.3
		c0,0.5,0.1,0.8,0.1,1c0.1,0.2,0.2,0.3,0.5,0.5v0.4h-3.2c-0.1-0.1-0.1-0.5-0.2-0.9c-0.1-0.5-0.1-1-0.1-1.5v-1.3
		c0-0.6-0.2-1.1-0.6-1.3c-0.4-0.3-0.9-0.4-1.8-0.4H423l0,0v5.5l0,0h-1.4h-1.5V91.2z M423,83.4L423,83.4h3.4c0.8,0,1.3-0.2,1.7-0.5
		c0.4-0.3,0.6-0.8,0.6-1.4s-0.2-1.1-0.5-1.4c-0.4-0.3-0.9-0.5-1.6-0.5H423l0,0V83.4L423,83.4z M469.2,91.2V77.3l0,0h1.4h1.5l0,0
		v13.9l0,0h-1.4L469.2,91.2L469.2,91.2z M509.1,91.2l4.9-13.9h1.7h1.7l4.9,13.9l0,0h-1.5h-1.5l0,0l-0.9-2.8l0,0H513l0,0l-0.9,2.8
		l0,0h-1.5H509.1L509.1,91.2z M515.7,80.4l-1.8,5.6l0,0h3.7l0,0L515.7,80.4L515.7,80.4L515.7,80.4z M559.6,91.2L559.6,91.2V77.3l0,0
		h1.4h1.5l0,0v11.5l0,0h6.9l0,0V90v1.2l0,0H559.6z"/>
	<g class="st2">
		<path class="st3" d="M62.5,4.4c18.2,0,34.5,8.1,45.5,20.9c-2.9,0.7-5.4,2.5-7,5C91.5,19.7,77.8,13,62.5,13
			C47.1,13,33.4,19.7,24,30.3c-1.6-2.4-4.1-4.2-7-5C28,12.5,44.3,4.4,62.5,4.4L62.5,4.4z M13.4,49.1c-1.5,4.8-2.3,9.8-2.3,15.1
			c0,24.6,17.4,45.1,40.6,50.1c-0.8,1.6-1.3,3.5-1.3,5.4c0,1.1,0.1,2.1,0.4,3.1C23.3,117.4,2.6,93.2,2.6,64.2c0-6.5,1-12.7,2.9-18.5
			C7.6,47.7,10.3,49,13.4,49.1L13.4,49.1z M73.3,114.3c23.2-5,40.5-25.5,40.5-50.1c0-5.2-0.8-10.3-2.3-15.1c3.1-0.1,5.8-1.4,7.9-3.4
			c1.9,5.8,2.9,12,2.9,18.5c0,29-20.7,53.2-48.2,58.6c0.3-1,0.4-2,0.4-3.1C74.6,117.7,74.1,115.9,73.3,114.3z"/>
		<path class="st3" d="M20.3,40.6H53C43.2,44.5,36.3,54,36.3,65.2c0,0.9,0.1,1.9,0.1,2.8L20.3,40.6L20.3,40.6z M72.4,40.6h32.2
			L89.1,67.1c0-0.6,0.1-1.3,0.1-1.9C89.1,54.1,82.2,44.5,72.4,40.6L72.4,40.6z M77.2,87.3l-14.8,25.2l-15-25.7
			c4.3,3.1,9.6,4.9,15.3,4.9C68.1,91.7,73.1,90.1,77.2,87.3z"/>
		<path class="st3" d="M62.7,46.9c10.1,0,18.3,8.2,18.3,18.3s-8.2,18.3-18.3,18.3s-18.3-8.2-18.3-18.3S52.6,46.9,62.7,46.9z"/>
	</g>
</g>
<g id="Nuevo_Azul">
	<polygon class="st4" points="204.4,35.6 204.4,47.8 143.9,47.8 143.9,35.6 135.3,35.6 135.3,67.8 143.9,67.8 143.9,55.3 
		204.4,55.3 204.4,67.8 213,67.8 213,35.6 	"/>
	<path class="st4" d="M295,35.6h-1.9h-59.9h-3h-5.6v32.2h5.6h3h59.9h1.9h6.7V35.6H295z M233.2,60.4V43.1h59.9v17.3
		C293.1,60.4,233.2,60.4,233.2,60.4z"/>
	<polygon class="st4" points="322.5,60.4 322.5,35.6 313.9,35.6 313.9,67.8 319.5,67.8 322.5,67.8 391,67.8 391,60.4 	"/>
	<path class="st4" d="M473.8,35.6h-1.9H412h-3h-5.6v32.2h5.6h3h59.9h1.9h6.7V35.6H473.8z M412,60.4V43.1h59.9v17.3
		C471.9,60.4,412,60.4,412,60.4z"/>
	<polygon class="st4" points="569.5,43.1 569.5,35.6 562.8,35.6 560.9,35.6 501,35.6 498,35.6 492.4,35.6 492.4,54.8 501,54.8 
		501,54.8 560.9,54.8 560.9,60.4 501,60.4 501,60.4 492.4,60.4 492.4,67.8 498,67.8 498,67.8 560.9,67.8 562.8,67.8 569.5,67.8 
		569.5,48.4 560.9,48.4 560.9,48.4 501,48.4 501,43.1 560.9,43.1 560.9,43.1 	"/>
	<path class="st4" d="M135.4,91.2V77.3l0,0h1.4h1.5l0,0v13.9l0,0h-1.4L135.4,91.2L135.4,91.2z M179,91.2L179,91.2h-1.4h-1.4l0,0
		V77.3l0,0h1.5h1.5l0,0l5.6,9.8l0,0l0,0v-9.8l0,0h1.4h1.4l0,0v13.9h-1.4h-1.4l-5.8-10l0,0l0,0V91.2L179,91.2z M225.8,91.2V77.3l0,0
		h1.4l0,0h4.5c1.9,0,3.4,0.6,4.3,1.7c1,1.1,1.5,2.8,1.5,4.9c0,2.4-0.5,4.2-1.5,5.4c-1,1.2-2.5,1.9-4.5,1.9h-4.3l0,0L225.8,91.2
		L225.8,91.2z M228.7,88.8L228.7,88.8h2.4c1.2,0,2.1-0.4,2.7-1.2c0.6-0.8,0.9-2,0.9-3.6c0-1.4-0.3-2.5-0.8-3.3
		c-0.5-0.7-1.4-1.1-2.5-1.1h-2.7l0,0L228.7,88.8L228.7,88.8z M286.3,86c0,2-0.4,3.4-1.3,4.3s-2.3,1.3-4.3,1.3
		c-1.9,0-3.3-0.5-4.2-1.4c-0.9-0.9-1.4-2.3-1.4-4.3v-8.7l0,0h1.4h1.5l0,0V86c0,1,0.2,1.7,0.7,2.2c0.4,0.5,1.1,0.7,2,0.7
		c1,0,1.7-0.2,2.1-0.7s0.6-1.2,0.6-2.3v-8.8l0,0h1.4h1.5l0,0L286.3,86L286.3,86z M332.1,81.5L332.1,81.5c-0.1-0.7-0.3-1.2-0.9-1.6
		c-0.5-0.4-1.2-0.6-2.1-0.6c-0.7,0-1.3,0.2-1.7,0.5c-0.4,0.3-0.6,0.8-0.6,1.4c0,0.4,0.2,0.7,0.7,1c0.4,0.2,1.3,0.5,2.7,0.8
		c2,0.5,3.4,1,4,1.6c0.7,0.6,1,1.5,1,2.8s-0.5,2.3-1.5,3.1c-1,0.8-2.4,1.2-4.2,1.2c-1.8,0-3.1-0.4-4.1-1.2c-1-0.8-1.5-2-1.6-3.5l0,0
		h2.8l0,0c0,0.7,0.3,1.3,0.8,1.7c0.5,0.4,1.2,0.6,2.1,0.6s1.6-0.1,2.2-0.5c0.5-0.3,0.8-0.7,0.8-1.2s-0.2-0.9-0.6-1.2
		c-0.4-0.2-1.1-0.5-2.3-0.8c-2.2-0.5-3.7-1-4.4-1.6c-0.7-0.6-1.1-1.5-1.1-2.7c0-1.4,0.5-2.4,1.5-3.2c1-0.8,2.3-1.2,4-1.2
		c1.6,0,2.8,0.4,3.8,1.2c1,0.8,1.5,1.9,1.6,3.3l0,0L332.1,81.5L332.1,81.5z M375.8,91.2V79.8l0,0h-4.2l0,0v-1.2v-1.2l0,0h11.3l0,0
		v1.2v1.2l0,0h-4.2l0,0v11.5l0,0h-1.4h-1.5V91.2z M420.1,91.2V77.3l0,0h1.4l0,0h5.6c1.3,0,2.4,0.4,3.2,1.1c0.8,0.7,1.2,1.6,1.2,2.8
		c0,1.3-0.5,2.3-1.4,2.9c-0.2,0.2-0.5,0.3-0.8,0.4l0,0c0.2,0.1,0.3,0.1,0.5,0.2c0.8,0.5,1.2,1.3,1.2,2.4l0.1,2.3
		c0,0.5,0.1,0.8,0.1,1c0.1,0.2,0.2,0.3,0.5,0.5v0.4h-3.2c-0.1-0.1-0.1-0.5-0.2-0.9c-0.1-0.5-0.1-1-0.1-1.5v-1.3
		c0-0.6-0.2-1.1-0.6-1.3c-0.4-0.3-0.9-0.4-1.8-0.4H423l0,0v5.5l0,0h-1.4h-1.5V91.2z M423,83.4L423,83.4h3.4c0.8,0,1.3-0.2,1.7-0.5
		c0.4-0.3,0.6-0.8,0.6-1.4s-0.2-1.1-0.5-1.4c-0.4-0.3-0.9-0.5-1.6-0.5H423l0,0V83.4L423,83.4z M469.2,91.2V77.3l0,0h1.4h1.5l0,0
		v13.9l0,0h-1.4L469.2,91.2L469.2,91.2z M509.1,91.2l4.9-13.9h1.7h1.7l4.9,13.9l0,0h-1.5h-1.5l0,0l-0.9-2.8l0,0H513l0,0l-0.9,2.8
		l0,0h-1.5H509.1L509.1,91.2z M515.7,80.4l-1.8,5.6l0,0h3.7l0,0L515.7,80.4L515.7,80.4L515.7,80.4z M559.6,91.2L559.6,91.2V77.3l0,0
		h1.4h1.5l0,0v11.5l0,0h6.9l0,0V90v1.2l0,0H559.6z"/>
	<g>
		<path class="st4" d="M62.5,4.4c18.2,0,34.5,8.1,45.5,20.9c-2.9,0.7-5.4,2.5-7,5C91.5,19.7,77.8,13,62.5,13
			C47.1,13,33.4,19.7,24,30.3c-1.6-2.4-4.1-4.2-7-5C28,12.5,44.3,4.4,62.5,4.4L62.5,4.4z M13.4,49.1c-1.5,4.8-2.3,9.8-2.3,15.1
			c0,24.6,17.4,45.1,40.6,50.1c-0.8,1.6-1.3,3.5-1.3,5.4c0,1.1,0.1,2.1,0.4,3.1C23.3,117.4,2.6,93.2,2.6,64.2c0-6.5,1-12.7,2.9-18.5
			C7.6,47.7,10.3,49,13.4,49.1L13.4,49.1z M73.3,114.3c23.2-5,40.5-25.5,40.5-50.1c0-5.2-0.8-10.3-2.3-15.1c3.1-0.1,5.8-1.4,7.9-3.4
			c1.9,5.8,2.9,12,2.9,18.5c0,29-20.7,53.2-48.2,58.6c0.3-1,0.4-2,0.4-3.1C74.6,117.7,74.1,115.9,73.3,114.3z"/>
		<path class="st4" d="M20.3,40.6H53C43.2,44.5,36.3,54,36.3,65.2c0,0.9,0.1,1.9,0.1,2.8L20.3,40.6L20.3,40.6z M72.4,40.6h32.2
			L89.1,67.1c0-0.6,0.1-1.3,0.1-1.9C89.1,54.1,82.2,44.5,72.4,40.6L72.4,40.6z M77.2,87.3l-14.8,25.2l-15-25.7
			c4.3,3.1,9.6,4.9,15.3,4.9C68.1,91.7,73.1,90.1,77.2,87.3z"/>
		<path class="st4" d="M62.7,46.9c10.1,0,18.3,8.2,18.3,18.3s-8.2,18.3-18.3,18.3s-18.3-8.2-18.3-18.3S52.6,46.9,62.7,46.9z"/>
	</g>
</g>
</svg>
